<svg xmlns="http://www.w3.org/2000/svg" viewBox="0 0 150 50"><path d="M123.39,50H26.61C11.94,50,0,38.78,0,25S11.94,0,26.61,0h96.78C138.06,0,150,11.21,150,25S138.06,50,123.39,50ZM26.61,4.55c-12,0-21.77,9.17-21.77,20.45s9.77,20.45,21.77,20.45h96.78c12,0,21.77-9.17,21.77-20.45S135.39,4.55,123.39,4.55Z"/><path d="M115.5,40h-15A7.5,7.5,0,0,1,93,32.5v-15a7.5,7.5,0,0,1,7.5-7.5h15a7.5,7.5,0,0,1,7.5,7.5v15A7.5,7.5,0,0,1,115.5,40Zm-15-25A2.5,2.5,0,0,0,98,17.5v15a2.5,2.5,0,0,0,2.5,2.5h15a2.5,2.5,0,0,0,2.5-2.5v-15a2.5,2.5,0,0,0-2.5-2.5Z"/><path d="M82.5,40h-15A7.5,7.5,0,0,1,60,32.5v-15A7.5,7.5,0,0,1,67.5,10h15A7.5,7.5,0,0,1,90,17.5v15A7.5,7.5,0,0,1,82.5,40Zm-15-25A2.5,2.5,0,0,0,65,17.5v15A2.5,2.5,0,0,0,67.5,35h15A2.5,2.5,0,0,0,85,32.5v-15A2.5,2.5,0,0,0,82.5,15Z"/><path d="M49.5,40h-15A7.5,7.5,0,0,1,27,32.5v-15A7.5,7.5,0,0,1,34.5,10h15A7.5,7.5,0,0,1,57,17.5v15A7.5,7.5,0,0,1,49.5,40Zm-15-25A2.5,2.5,0,0,0,32,17.5v15A2.5,2.5,0,0,0,34.5,35h15A2.5,2.5,0,0,0,52,32.5v-15A2.5,2.5,0,0,0,49.5,15Z"/></svg>