<svg xmlns="http://www.w3.org/2000/svg" viewBox="0 0 50 50"><path d="M25,50A25,25,0,1,1,50,25,25,25,0,0,1,25,50ZM25,4.55A20.45,20.45,0,1,0,45.45,25,20.47,20.47,0,0,0,25,4.55Z"/><path d="M38.56,22.7h-2.3a11.47,11.47,0,0,0-1.68-4l1.61-1.61a2.3,2.3,0,1,0-3.25-3.25l-1.61,1.61a11.47,11.47,0,0,0-4-1.68h0v-2.3a2.3,2.3,0,1,0-4.6,0v2.3h0a11.47,11.47,0,0,0-4,1.68l-1.61-1.61a2.3,2.3,0,1,0-3.25,3.25l1.61,1.61a11.47,11.47,0,0,0-1.68,4h-2.3a2.3,2.3,0,1,0,0,4.6h2.3a11.47,11.47,0,0,0,1.68,4l-1.61,1.61a2.3,2.3,0,1,0,3.25,3.25l1.61-1.61a11.47,11.47,0,0,0,4,1.68h0v2.3a2.3,2.3,0,1,0,4.6,0v-2.3h0a11.47,11.47,0,0,0,4-1.68l1.61,1.61a2.3,2.3,0,0,0,3.25-3.25l-1.61-1.61a11.47,11.47,0,0,0,1.68-4h2.3a2.3,2.3,0,0,0,0-4.6ZM25,31.89A6.89,6.89,0,1,1,31.89,25,6.9,6.9,0,0,1,25,31.89Z"/></svg>